<svg aria-hidden="true" style="position: absolute; width: 0; height: 0; overflow: hidden;" version="1.1" xmlns="http://www.w3.org/2000/svg" xmlns:xlink="http://www.w3.org/1999/xlink">
<defs>
<symbol id="icon-logo" viewBox="0 0 25 32">
<path fill="#ffbc33" style="fill: var(--color1, #ffbc33)" d="M23.775 18.133c0-0.009 0.001-0.018 0.001-0.028 0-1.901-1.547-3.448-3.448-3.448h-0.941l4.127-9.952c0.727-1.756-0.11-3.777-1.866-4.505s-3.778 0.11-4.505 1.866l-2.579 6.226-2.579-6.226c-0.728-1.756-2.749-2.594-4.505-1.866s-2.594 2.749-1.866 4.505l2.24 5.409c-0.283 0.167-0.539 0.373-0.763 0.611-0.629-0.669-1.521-1.088-2.51-1.088-1.901 0-3.448 1.547-3.448 3.448v7.532c0 6.243 5.079 11.322 11.322 11.322s11.322-5.079 11.322-11.322l-0-2.483zM8.197 1.932c0.801-0.332 1.723 0.050 2.055 0.851l3.445 8.317c0.145 0.35 0.487 0.579 0.866 0.579s0.721-0.229 0.866-0.579l3.445-8.317c0.332-0.801 1.254-1.183 2.055-0.852s1.183 1.254 0.851 2.055l-4.424 10.67h-4.307l0-1.573c-0-1.873-1.501-3.4-3.363-3.446l-2.341-5.651c-0.332-0.801 0.050-1.723 0.851-2.055zM9.601 14.658c-0.566 0-1.101 0.138-1.573 0.381v-1.955c0-0.867 0.706-1.573 1.573-1.573s1.573 0.706 1.573 1.573l-0 1.573h-1.573zM3.007 13.084c0-0.867 0.706-1.573 1.573-1.573s1.573 0.706 1.573 1.573v5.021c-0 0.867-0.706 1.573-1.573 1.573s-1.573-0.706-1.573-1.573v-5.021zM12.454 30.063c-5.019 0-9.136-3.935-9.429-8.882 0.468 0.237 0.996 0.372 1.555 0.372 0.989 0 1.881-0.419 2.511-1.088 0.629 0.669 1.521 1.088 2.511 1.088h8.216c0.518 0 0.937-0.42 0.937-0.937s-0.42-0.938-0.937-0.938h-8.216c-0.867 0-1.573-0.706-1.573-1.573s0.706-1.573 1.573-1.573h2.51c0 0 0 0 0 0h0c0 0 0 0 0 0h5.866c0.001 0 0.003 0 0.005 0s0.004-0 0.006-0h2.339c0.864 0 1.567 0.7 1.573 1.562-0 0.009-0 0.017-0 0.026v2.495c0 5.209-4.238 9.447-9.447 9.447z"></path>
</symbol>
<symbol id="icon-Property-Default" viewBox="0 0 32 32">
<path fill="#fe4b64" style="fill: var(--color2, #fe4b64)" d="M32 16c0 8.837-7.163 16-16 16s-16-7.163-16-16c0-8.837 7.163-16 16-16s16 7.163 16 16z"></path>
<path fill="#fff" style="fill: var(--color3, #fff)" d="M14.421 10.453h3.174l-0.529 7.799h-2.116l-0.529-7.799zM16.008 22.537c-0.466 0-0.859-0.148-1.178-0.444-0.307-0.307-0.461-0.677-0.461-1.109s0.154-0.791 0.461-1.075c0.307-0.296 0.7-0.444 1.178-0.444s0.87 0.148 1.178 0.444c0.307 0.284 0.461 0.643 0.461 1.075s-0.159 0.802-0.478 1.109c-0.307 0.296-0.694 0.444-1.161 0.444z"></path>
</symbol>
<symbol id="icon-logout" viewBox="0 0 32 32">
<path fill="#858598" style="fill: var(--color4, #858598)" d="M22.625 24.5v2.5c0 2.757-2.243 5-5 5h-12.563c-2.757 0-5-2.243-5-5v-22c0-2.757 2.243-5 5-5h12.563c2.757 0 5 2.243 5 5v2.5c0 0.69-0.56 1.25-1.25 1.25s-1.25-0.56-1.25-1.25v-2.5c0-1.378-1.122-2.5-2.5-2.5h-12.563c-1.378 0-2.5 1.122-2.5 2.5v22c0 1.378 1.122 2.5 2.5 2.5h12.563c1.378 0 2.5-1.122 2.5-2.5v-2.5c0-0.69 0.56-1.25 1.25-1.25s1.25 0.56 1.25 1.25zM31.147 13.853l-2.799-2.799c-0.488-0.488-1.28-0.488-1.768 0s-0.488 1.28 0 1.768l1.991 1.991h-15.009c-0.69 0-1.25 0.56-1.25 1.25s0.56 1.25 1.25 1.25h15.009l-1.991 1.991c-0.488 0.488-0.488 1.28 0 1.768 0.244 0.244 0.564 0.366 0.884 0.366s0.64-0.122 0.884-0.366l2.799-2.799c1.219-1.218 1.219-3.201 0-4.419z"></path>
</symbol>
<symbol id="icon-galary" viewBox="0 0 36 32">
<path d="M18.006 11c-2.003 0-3.627 1.624-3.627 3.627s1.624 3.627 3.627 3.627 3.627-1.624 3.627-3.627c0-2.003-1.624-3.627-3.627-3.627zM18.006 16.527c-1.049 0-1.9-0.851-1.9-1.9s0.851-1.9 1.9-1.9c1.049 0 1.9 0.851 1.9 1.9s-0.851 1.9-1.9 1.9z"></path>
<path d="M32.47 2.709l-23.575-2.677c-0.915-0.13-1.842 0.137-2.547 0.734-0.705 0.547-1.157 1.358-1.252 2.245l-0.432 3.541h-1.339c-1.9 0-3.325 1.684-3.325 3.584v17.659c-0.048 1.812 1.382 3.319 3.194 3.367 0.044 0.001 0.087 0.001 0.131 0.001h23.704c1.9 0 3.627-1.468 3.627-3.368v-0.691c0.589-0.114 1.148-0.349 1.641-0.691 0.7-0.589 1.148-1.423 1.252-2.332l1.986-17.53c0.203-1.904-1.164-3.617-3.066-3.843zM28.93 27.795c0 0.95-0.95 1.641-1.9 1.641h-23.704c-0.858 0.025-1.574-0.65-1.599-1.508-0.001-0.044-0.001-0.088 0.002-0.133v-3.195l6.692-4.922c0.804-0.617 1.936-0.562 2.677 0.129l4.706 4.145c0.715 0.6 1.614 0.935 2.548 0.95 0.73 0.009 1.447-0.185 2.073-0.561l8.506-4.922v8.376h-0zM28.93 17.389l-9.412 5.483c-0.808 0.479-1.831 0.392-2.548-0.216l-4.749-4.188c-1.361-1.17-3.351-1.241-4.793-0.173l-5.699 4.145v-12.305c0-0.95 0.648-1.857 1.598-1.857h23.704c1.015 0.042 1.834 0.843 1.9 1.857v7.254zM33.81 6.319c-0.001 0.006-0.001 0.011-0.002 0.017l-2.029 17.53c0.003 0.455-0.204 0.885-0.561 1.166-0.173 0.173-0.561 0.259-0.561 0.345v-15.241c-0.068-1.967-1.659-3.539-3.627-3.584h-20.638l0.389-3.368c0.084-0.436 0.312-0.831 0.648-1.123 0.379-0.262 0.837-0.384 1.295-0.345l23.531 2.72c0.95 0.090 1.646 0.933 1.556 1.883z"></path>
</symbol>
<symbol id="icon-present" viewBox="0 0 32 32">
<path fill="#ffbc33" style="fill: var(--color1, #ffbc33)" d="M17.866 19.157v12.843h10.565c1.373 0 2.487-1.113 2.487-2.487v-10.356h-13.052z"></path>
<path fill="#ffbc33" style="fill: var(--color1, #ffbc33)" d="M14.13 19.157h-13.047v10.356c0 1.374 1.114 2.487 2.487 2.487h10.56v-12.843zM4.474 29.39c-0.516 0-0.934-0.418-0.934-0.934v-5.182c0-0.516 0.418-0.934 0.934-0.934s0.934 0.418 0.934 0.934v5.182c0 0.515-0.418 0.934-0.934 0.934z"></path>
<path fill="#ffbc33" style="fill: var(--color1, #ffbc33)" d="M29.24 9.419h-4.671c0.645-0.309 1.185-0.629 1.512-0.956 1.924-1.924 1.924-5.044 0-6.968-0.963-0.962-2.224-1.443-3.485-1.443s-2.522 0.481-3.484 1.443c-0.799 0.799-1.567 2.772-2.195 4.804-0.293-0.080-0.595-0.137-0.912-0.137-0.316 0-0.618 0.056-0.91 0.136-0.63-2.051-1.406-4.050-2.212-4.856-0.962-0.962-2.222-1.443-3.484-1.443-1.261 0-2.522 0.481-3.484 1.443-1.924 1.925-1.924 5.044 0 6.968 0.344 0.346 0.924 0.684 1.62 1.008h-4.775c-1.373 0-2.486 1.113-2.486 2.486v2.115c0 1.373 1.113 2.485 2.486 2.485h11.37v-6.988h3.736v6.988h11.374c1.373 0 2.486-1.113 2.486-2.486v-2.115c-0-1.373-1.113-2.486-2.486-2.486zM20.873 3.256c0.46-0.46 1.072-0.713 1.723-0.713s1.263 0.254 1.724 0.713c0.46 0.46 0.712 1.072 0.712 1.723s-0.253 1.263-0.71 1.72c-0.515 0.485-2.529 1.242-5.020 1.946-0.070-0.242-0.166-0.47-0.286-0.687 0.679-2.344 1.391-4.211 1.856-4.702zM7.677 3.204c0.46-0.46 1.073-0.713 1.723-0.713 0.652 0 1.264 0.253 1.722 0.712 0.468 0.496 1.189 2.387 1.873 4.755-0.113 0.203-0.203 0.417-0.274 0.643-2.503-0.705-4.53-1.465-5.044-1.95-0.95-0.95-0.95-2.496 0-3.446z"></path>
</symbol>
<symbol id="icon-edit" viewBox="0 0 32 32">
<path fill="#fff" style="fill: var(--color3, #fff)" d="M18.747 12.027l1.227 1.227-12.080 12.080h-1.227v-1.227l12.080-12.080zM23.547 4c-0.333 0-0.68 0.133-0.933 0.387l-2.44 2.44 5 5 2.44-2.44c0.52-0.52 0.52-1.36 0-1.88l-3.12-3.12c-0.267-0.267-0.6-0.387-0.947-0.387zM18.747 8.253l-14.747 14.747v5h5l14.747-14.747-5-5z"></path>
</symbol>
<symbol id="icon-close" viewBox="0 0 32 32">
<path d="M17.333 4c0-0.736-0.597-1.333-1.333-1.333s-1.333 0.597-1.333 1.333v10.667h-10.667c-0.736 0-1.333 0.597-1.333 1.333s0.597 1.333 1.333 1.333h10.667v10.667c0 0.736 0.597 1.333 1.333 1.333s1.333-0.597 1.333-1.333v-10.667h10.667c0.736 0 1.333-0.597 1.333-1.333s-0.597-1.333-1.333-1.333h-10.667v-10.667z"></path>
</symbol>
<symbol id="icon-slide-button-red" viewBox="0 0 32 32">
<path fill="#f70808" style="fill: var(--color1, #f70808)" d="M23.494 7.494h-14.987c-4.698 0-8.506 3.809-8.506 8.506s3.808 8.506 8.506 8.506h14.987c4.698 0 8.506-3.809 8.506-8.506s-3.808-8.506-8.506-8.506zM23.494 21.266c-2.904 0-5.266-2.363-5.266-5.266s2.362-5.266 5.266-5.266 5.266 2.362 5.266 5.266c0 2.903-2.362 5.266-5.266 5.266z"></path>
</symbol>
<symbol id="icon-slide-button-green" viewBox="0 0 32 32">
<path fill="#8ec63f" style="fill: var(--color1, #8ec63f)" d="M23.494 7.494h-14.987c-4.698 0-8.506 3.809-8.506 8.506s3.809 8.506 8.506 8.506h14.987c4.698 0 8.506-3.809 8.506-8.506s-3.809-8.506-8.506-8.506zM8.506 21.266c-2.904 0-5.266-2.362-5.266-5.266s2.362-5.266 5.266-5.266 5.266 2.363 5.266 5.266c-0 2.904-2.362 5.266-5.266 5.266z"></path>
</symbol>
<symbol id="icon-burger-menu" viewBox="0 0 32 32">
<path d="M3.429 8c0-0.631 0.512-1.143 1.143-1.143h22.857c0.631 0 1.143 0.512 1.143 1.143s-0.512 1.143-1.143 1.143h-22.857c-0.631 0-1.143-0.512-1.143-1.143z"></path>
<path d="M3.429 16c0-0.631 0.512-1.143 1.143-1.143h22.857c0.631 0 1.143 0.512 1.143 1.143s-0.512 1.143-1.143 1.143h-22.857c-0.631 0-1.143-0.512-1.143-1.143z"></path>
<path d="M4.571 22.857c-0.631 0-1.143 0.512-1.143 1.143s0.512 1.143 1.143 1.143h22.857c0.631 0 1.143-0.512 1.143-1.143s-0.512-1.143-1.143-1.143h-22.857z"></path>
</symbol>
</defs>
</svg>
